<svg width="32" height="32" viewBox="0 0 31 31" fill="none" xmlns="http://www.w3.org/2000/svg">
  <path
    d="M27.4563 2.35474C26.5452 1.44361 25.4726 0.758167 24.2859 0.290527C28.9328 4.95334 27.4438 13.9858 20.9557 20.4739C14.4627 26.9669 5.42115 28.4531 0.761469 23.7934C0.555301 23.5873 0.362137 23.3717 0.179932 23.1489C0.62798 24.7083 1.41584 26.1071 2.55987 27.2512C7.44868 32.1401 16.9854 30.53 23.8603 23.6551C30.7352 16.7802 32.3452 7.24353 27.4563 2.35474ZM21.9244 4.01483C18.7162 0.806694 12.1524 2.16867 7.26368 7.05696C2.37483 11.9458 1.01246 18.5101 4.22076 21.7185C5.70484 23.2025 7.9067 23.7073 10.3288 23.3386C9.65088 23.0602 9.03422 22.6601 8.50745 22.1333C5.68159 19.3069 6.48682 13.92 10.3058 10.1007C14.125 6.28166 19.5121 5.47643 22.3384 8.3023C22.865 8.82895 23.2669 9.44439 23.5453 10.1222C23.9137 7.70043 23.4082 5.4988 21.9244 4.01483Z"
    fill="#FFFFFF"
  />
</svg>
