<svg width="200" height="58" viewBox="0 0 134 40" fill="none" xmlns="http://www.w3.org/2000/svg">
  <path
    d="M31.4551 9.30778C30.6361 8.48879 29.672 7.87266 28.6053 7.45231C32.7823 11.6436 31.4438 19.7627 25.6118 25.5947C19.7754 31.4311 11.6482 32.767 7.45972 28.5785C7.2744 28.3932 7.10077 28.1994 6.93699 27.9992C7.33973 29.4009 8.04792 30.6582 9.07626 31.6866C13.4707 36.0811 22.043 34.6339 28.2227 28.4542C34.4024 22.2745 35.8496 13.7022 31.4551 9.30778ZM26.4826 10.8C23.5988 7.91628 17.6988 9.14053 13.3044 13.5345C8.90993 17.929 7.68533 23.8295 10.5692 26.7134C11.9032 28.0473 13.8824 28.5011 16.0596 28.1697C15.4502 27.9194 14.8959 27.5598 14.4224 27.0863C11.8823 24.5457 12.6061 19.7035 16.0389 16.2704C19.4719 12.8376 24.3142 12.1138 26.8547 14.6539C27.3281 15.1273 27.6893 15.6805 27.9396 16.2898C28.2707 14.1129 27.8163 12.1339 26.4826 10.8Z"
    fill="#FFFFFF"
  />
  <path
    d="M54.1561 25.12V27H46.5761C45.1561 27 44.4161 26.08 44.4161 25.04C44.4161 24.48 44.6361 23.88 45.0961 23.36L51.7961 16.12C51.8961 16 51.9561 15.92 51.9561 15.76C51.9561 15.6 51.8361 15.48 51.6361 15.48H44.7561V13.6H52.0561C53.4561 13.6 54.2361 14.5 54.2361 15.54C54.2361 16.08 54.0161 16.7 53.5161 17.24L46.8361 24.46C46.7361 24.58 46.6561 24.68 46.6561 24.84C46.6561 25 46.7761 25.12 46.9961 25.12H54.1561ZM61.001 27.22C58.021 27.22 55.801 25.06 55.801 22.04C55.801 19.22 57.821 16.92 60.761 16.92C63.721 16.92 65.561 19.06 65.561 21.8V22.6H57.721C57.941 24.28 59.221 25.46 60.981 25.46C62.181 25.46 63.261 24.94 63.841 23.86L65.361 24.64C64.501 26.32 62.921 27.22 61.001 27.22ZM57.801 21.32H63.581C63.501 19.76 62.361 18.7 60.741 18.7C59.081 18.7 58.001 19.86 57.801 21.32ZM69.9049 27H67.9249V21.16C67.9249 18.78 69.2849 17 71.8449 17C72.4649 17 73.1049 17.12 73.6049 17.36V19.32C73.1249 19.04 72.5649 18.9 72.0249 18.9C70.7049 18.9 69.9049 19.8 69.9049 21.24V27ZM79.6738 27.24C76.7138 27.24 74.4338 24.92 74.4338 22.08C74.4338 19.26 76.7338 16.96 79.6738 16.96C82.6338 16.96 84.8738 19.28 84.8738 22.08C84.8738 24.92 82.6138 27.24 79.6738 27.24ZM79.6738 25.36C81.4938 25.36 82.8938 23.88 82.8938 22.1C82.8938 20.3 81.4938 18.82 79.6738 18.82C77.8338 18.82 76.4138 20.3 76.4138 22.1C76.4138 23.88 77.8338 25.36 79.6738 25.36ZM93.285 27.24C89.505 27.24 86.465 24.18 86.465 20.28C86.465 16.42 89.505 13.36 93.285 13.36C95.585 13.36 97.685 14.54 98.705 16.5L97.045 17.46C96.265 16.12 94.925 15.3 93.205 15.3C90.605 15.3 88.565 17.46 88.565 20.28C88.565 23.14 90.585 25.32 93.205 25.32C94.925 25.32 96.285 24.5 97.045 23.16L98.705 24.12C97.685 26.08 95.585 27.24 93.285 27.24ZM100.981 12.7H102.961V27H100.981V12.7ZM107.567 15.26C106.847 15.26 106.267 14.68 106.267 13.96C106.267 13.24 106.847 12.64 107.567 12.64C108.287 12.64 108.847 13.24 108.847 13.96C108.847 14.68 108.287 15.26 107.567 15.26ZM106.587 17.2H108.567V27H106.587V17.2ZM116.292 27.22C113.472 27.26 111.172 24.92 111.172 22.08C111.172 19.26 113.472 16.94 116.292 16.96C118.092 16.96 119.752 17.78 120.652 19.54L119.012 20.46C118.432 19.4 117.452 18.84 116.292 18.84C114.572 18.84 113.152 20.3 113.152 22.08C113.152 23.88 114.572 25.36 116.292 25.36C117.452 25.36 118.432 24.8 119.012 23.74L120.652 24.64C119.752 26.42 118.092 27.22 116.292 27.22ZM125.051 27H123.071V12.68H125.051V21.28H126.251C126.351 21.04 126.511 20.82 126.711 20.62L129.851 17.2H132.271L128.051 21.8C127.931 21.9 127.871 21.98 127.871 22.08C127.871 22.18 127.931 22.26 128.051 22.36L132.251 27H129.811L126.691 23.58C126.491 23.34 126.331 23.1 126.231 22.84H125.051V27Z"
    fill="#FAFAFA"
  />
</svg>
