<svg width="16" height="16" viewBox="0 0 16 16" fill="none" xmlns="http://www.w3.org/2000/svg">
<g clip-path="url(#clip0_879_1977)">
<rect width="16" height="16" rx="4" fill="black"/>
<path d="M12.2662 3.8746C11.9592 3.56761 11.5977 3.33687 11.1979 3.17923C12.7638 4.75107 12.2619 7.79556 10.0751 9.98237C7.8865 12.1708 4.83848 12.6717 3.26786 11.101C3.1986 11.0318 3.13574 10.9576 3.07451 10.8828C3.22553 11.4086 3.48846 11.881 3.87414 12.2667C5.52207 13.9145 8.73694 13.3714 11.0543 11.0541C13.3714 8.73673 13.914 5.52247 12.2662 3.8746ZM10.4011 4.43324C9.31953 3.35242 7.10728 3.81192 5.45961 5.45938C3.8119 7.10708 3.35258 9.31923 4.43348 10.4008C4.9339 10.9013 5.67653 11.0715 6.49334 10.9471C6.26465 10.8532 6.05643 10.7187 5.87876 10.541C4.9264 9.58823 5.19774 7.77213 6.48505 6.48482C7.77234 5.1978 9.58855 4.92625 10.5412 5.87853C10.7185 6.0558 10.8534 6.26364 10.9473 6.49173C11.0712 5.67569 10.9011 4.93326 10.4011 4.43324Z" fill="white"/>
</g>
<defs>
<clipPath id="clip0_879_1977">
<rect width="16" height="16" rx="4" fill="white"/>
</clipPath>
</defs>
</svg>
